HIERARCHY
ROOT Hips
{
	OFFSET -0.001795 -0.223333 0.028219
	CHANNELS 6 Xposition Yposition Zposition Zrotation Yrotation Xrotation 
	JOINT LeftUpLeg
	{
		OFFSET 0.069520 -0.091406 -0.006815
		CHANNELS 3 Zrotation Yrotation Xrotation
		JOINT LeftLeg
		{
			OFFSET 0.034277 -0.375199 -0.004496
			CHANNELS 3 Zrotation Yrotation Xrotation
			JOINT LeftFoot
			{
				OFFSET -0.013596 -0.397961 -0.043693
				CHANNELS 3 Zrotation Yrotation Xrotation
				JOINT LeftToe
				{
					OFFSET 0.026358 -0.055791 0.119288
					CHANNELS 3 Zrotation Yrotation Xrotation
					End Site
					{
						OFFSET 0.000000 0.000000 0.000000
					}
				}
			}
		}
	}
	JOINT RightUpLeg
	{
		OFFSET -0.067670 -0.090522 -0.004320
		CHANNELS 3 Zrotation Yrotation Xrotation
		JOINT RightLeg
		{
			OFFSET -0.038290 -0.382569 -0.008850
			CHANNELS 3 Zrotation Yrotation Xrotation
			JOINT RightFoot
			{
				OFFSET 0.015774 -0.398415 -0.042312
				CHANNELS 3 Zrotation Yrotation Xrotation
				JOINT RightToe
				{
					OFFSET -0.025372 -0.048144 0.123348
					CHANNELS 3 Zrotation Yrotation Xrotation
					End Site
					{
						OFFSET 0.000000 0.000000 0.000000
					}
				}
			}
		}
	}
	JOINT Spine
	{
		OFFSET -0.002533 0.108963 -0.026696
		CHANNELS 3 Zrotation Yrotation Xrotation
		JOINT Spine1
		{
			OFFSET 0.005487 0.135180 0.001092
			CHANNELS 3 Zrotation Yrotation Xrotation
			JOINT Spine2
			{
				OFFSET 0.001457 0.052922 0.025425
				CHANNELS 3 Zrotation Yrotation Xrotation
				JOINT Neck
				{
					OFFSET -0.002778 0.213870 -0.042857
					CHANNELS 3 Zrotation Yrotation Xrotation
					JOINT Head
					{
						OFFSET 0.005152 0.064970 0.051349
						CHANNELS 3 Zrotation Yrotation Xrotation
						End Site
						{
							OFFSET 0.000000 0.000000 0.000000
						}
					}
				}
				JOINT LeftShoulder
				{
					OFFSET 0.078845 0.121749 -0.034090
					CHANNELS 3 Zrotation Yrotation Xrotation
					JOINT LeftArm
					{
						OFFSET 0.090977 0.030469 -0.008868
						CHANNELS 3 Zrotation Yrotation Xrotation
						JOINT LeftForeArm
						{
							OFFSET 0.259612 -0.012772 -0.027456
							CHANNELS 3 Zrotation Yrotation Xrotation
							JOINT LeftHand
							{
								OFFSET 0.249234 0.008986 -0.001171
								CHANNELS 3 Zrotation Yrotation Xrotation
								End Site
								{
									OFFSET 0.000000 0.000000 0.000000
								}
							}
						}
					}
				}
				JOINT RightShoulder
				{
					OFFSET -0.081759 0.118833 -0.038615
					CHANNELS 3 Zrotation Yrotation Xrotation
					JOINT RightArm
					{
						OFFSET -0.096012 0.032551 -0.009143
						CHANNELS 3 Zrotation Yrotation Xrotation
						JOINT RightForeArm
						{
							OFFSET -0.253742 -0.013329 -0.021401
							CHANNELS 3 Zrotation Yrotation Xrotation
							JOINT RightHand
							{
								OFFSET -0.255298 0.007772 -0.005559
								CHANNELS 3 Zrotation Yrotation Xrotation
								End Site
								{
									OFFSET 0.000000 0.000000 0.000000
								}
							}
						}
					}
				}
			}
		}
	}
}
MOTION
Frames: 11
Frame Time: 0.050000
-0.060012 0.976899 -0.004390 -1.912920 -9.576707 1.137987 10.149568 0.199018 5.286093 -4.882817 0.603474 -9.411645 3.623301 10.548886 19.151881 0.000000 0.000000 0.000000 -4.491481 0.179552 0.490045 3.712780 -0.328899 -3.297378 2.889464 -4.475590 20.234023 0.000000 0.000000 0.000000 -2.292925 -0.110187 11.690901 11.632710 -3.755998 -13.158752 -0.448248 -6.925306 28.137769 -7.208098 4.040335 -21.863090 0.000000 0.000000 0.000000 -29.234177 -16.103584 13.915908 -50.183758 -33.669686 4.791790 27.279204 -69.552393 -10.679708 0.000000 0.000000 0.000000 17.029728 24.024977 8.265960 51.892381 27.065814 4.649534 -27.233699 39.793408 -8.882524 0.000000 0.000000 0.000000 
-0.059217 0.976516 -0.005146 -2.100365 -8.671940 1.620705 10.257466 0.137185 4.435012 -5.026400 0.596273 -9.551255 3.136523 9.958120 19.171660 0.000000 0.000000 0.000000 -4.166027 0.163430 0.395699 3.266820 -0.315929 -3.771466 2.444899 -4.952357 20.052734 0.000000 0.000000 0.000000 -2.727554 -0.065743 11.763895 11.452432 -3.686304 -13.109690 -0.559408 -6.145892 28.146993 -6.767506 4.004344 -20.773215 0.000000 0.000000 0.000000 -30.169039 -14.797275 12.823261 -49.169609 -30.583912 3.111444 25.357708 -65.602995 -8.976787 0.000000 0.000000 0.000000 16.508283 23.870353 8.537602 52.543951 26.775099 4.525429 -26.254033 40.368830 -8.445658 0.000000 0.000000 0.000000 
-0.057969 0.976338 -0.005921 -2.159987 -8.141218 2.097845 10.328995 0.092334 3.450802 -5.074728 0.589368 -9.429671 2.920288 9.792259 19.764147 0.000000 0.000000 0.000000 -4.086029 0.187824 -0.098957 3.146676 -0.316128 -4.098206 2.321509 -5.149585 20.321548 0.000000 0.000000 0.000000 -3.032113 -0.029714 12.075769 10.811903 -3.411545 -13.513206 -0.449389 -5.285500 28.388657 -6.405505 3.984851 -19.840560 0.000000 0.000000 0.000000 -31.026315 -13.709016 11.845654 -47.704377 -28.988859 2.152507 22.058670 -61.574220 -6.715315 0.000000 0.000000 0.000000 16.304964 23.221357 8.522385 53.406880 26.898269 4.607858 -25.282184 40.834303 -7.985402 0.000000 0.000000 0.000000 
-0.056498 0.975802 -0.006665 -2.265952 -7.360392 2.477100 10.237697 0.048663 2.645897 -5.061282 0.575320 -9.374388 2.365108 9.083908 19.661525 0.000000 0.000000 0.000000 -3.917953 0.188843 -0.287714 2.842073 -0.309304 -4.345857 1.766608 -5.852431 20.212715 0.000000 0.000000 0.000000 -3.299370 -0.002710 12.250391 10.492874 -3.276150 -13.658870 -0.767706 -4.520042 28.517269 -5.964565 3.897027 -19.216210 0.000000 0.000000 0.000000 -31.245410 -12.749859 10.736993 -46.482372 -27.919048 1.599882 18.999160 -58.337424 -4.931879 0.000000 0.000000 0.000000 16.061871 22.549925 8.507661 54.342478 26.805521 4.620749 -23.464494 41.723560 -7.284615 0.000000 0.000000 0.000000 
-0.054781 0.975458 -0.007209 -2.259973 -6.489836 2.876869 10.256975 0.003556 1.933528 -5.165504 0.564940 -9.560255 2.082217 8.879597 20.137524 0.000000 0.000000 0.000000 -3.770311 0.197817 -0.572440 2.614227 -0.307395 -4.631439 1.491448 -6.176133 20.350271 0.000000 0.000000 0.000000 -3.752598 0.049599 12.324944 10.198753 -3.158661 -13.687925 -0.736693 -4.046965 28.411244 -5.827097 3.972082 -18.577951 0.000000 0.000000 0.000000 -31.711897 -12.343713 10.106400 -45.605448 -27.223385 1.302960 16.059942 -55.437457 -3.426252 0.000000 0.000000 0.000000 15.939935 22.404060 8.685979 55.030518 26.783134 4.699903 -22.658326 42.263996 -6.927953 0.000000 0.000000 0.000000 
-0.052800 0.974884 -0.007531 -2.195877 -5.802655 3.145554 9.881257 -0.023394 1.608925 -5.009705 0.545905 -10.054572 1.663811 8.484678 20.682690 0.000000 0.000000 0.000000 -3.716643 0.201565 -0.695775 2.338317 -0.298865 -4.686737 0.918244 -6.988867 20.441867 0.000000 0.000000 0.000000 -4.011165 0.078612 12.481385 9.965191 -3.038714 -13.941442 -1.013350 -3.695775 28.513848 -5.739754 4.026896 -18.410241 0.000000 0.000000 0.000000 -31.760557 -12.001901 9.544295 -44.995520 -27.216084 1.304489 14.000706 -52.358361 -2.433203 0.000000 0.000000 0.000000 15.465293 21.915412 8.604368 56.006066 26.845075 4.815598 -21.113047 43.094275 -6.354381 0.000000 0.000000 0.000000 
-0.050543 0.974530 -0.007770 -2.206840 -5.308713 3.374658 9.666995 -0.045156 1.205845 -5.128049 0.540775 -10.289929 1.513782 8.375076 20.841440 0.000000 0.000000 0.000000 -3.790021 0.215214 -0.880932 2.290966 -0.302862 -4.905816 0.713978 -7.292425 20.685681 0.000000 0.000000 0.000000 -4.260987 0.107980 12.471234 9.484768 -2.847790 -14.140465 -1.055709 -3.427255 28.597055 -5.780832 4.138764 -18.311749 0.000000 0.000000 0.000000 -32.024767 -11.937739 9.294220 -44.548173 -27.166780 1.285571 12.531097 -49.418126 -1.789449 0.000000 0.000000 0.000000 15.400845 22.051291 8.805887 56.507425 27.122270 5.023153 -19.976151 43.087634 -5.826655 0.000000 0.000000 0.000000 
-0.048152 0.974215 -0.008075 -2.295540 -5.025737 3.492995 9.410946 -0.055791 0.988250 -4.987632 0.530627 -10.496520 1.380109 8.244448 20.919650 0.000000 0.000000 0.000000 -3.780121 0.223833 -1.031337 2.072738 -0.295231 -4.985710 0.424176 -7.816877 21.110709 0.000000 0.000000 0.000000 -4.464050 0.133411 12.609371 9.145958 -2.717711 -14.271140 -1.175398 -3.112543 28.550208 -5.904597 4.291725 -18.435889 0.000000 0.000000 0.000000 -31.935360 -11.767605 8.940264 -44.287515 -27.181639 1.330716 11.317810 -46.975866 -1.303963 0.000000 0.000000 0.000000 15.197898 21.965606 8.863750 57.203207 27.491704 5.318203 -18.761732 43.183804 -5.297239 0.000000 0.000000 0.000000 
-0.045843 0.974072 -0.008554 -2.309177 -4.571200 3.479121 9.275805 -0.066952 0.928288 -5.001991 0.522629 -10.660925 1.249680 8.146074 20.978037 0.000000 0.000000 0.000000 -3.914110 0.226827 -1.053584 1.906047 -0.287797 -4.892244 0.198388 -8.116786 21.228019 0.000000 0.000000 0.000000 -4.650619 0.152290 12.729952 8.938571 -2.637680 -14.331968 -1.256379 -2.902443 28.602404 -5.822666 4.293160 -18.768607 0.000000 0.000000 0.000000 -31.801486 -12.043032 8.899631 -44.301984 -27.398869 1.482649 11.584281 -45.665046 -1.451895 0.000000 0.000000 0.000000 15.100719 22.311420 9.138699 57.511574 28.225505 5.756800 -18.547585 42.622653 -5.066270 0.000000 0.000000 0.000000 
-0.043886 0.973899 -0.009251 -2.364294 -4.387723 3.512435 9.073340 -0.069421 0.974153 -4.880974 0.515653 -10.857899 0.994058 7.801192 20.889042 0.000000 0.000000 0.000000 -3.928799 0.229777 -1.106789 1.721120 -0.281840 -5.008863 0.005867 -8.469401 21.556904 0.000000 0.000000 0.000000 -4.825342 0.174592 12.833978 8.642176 -2.529819 -14.414986 -1.303075 -2.607139 28.496759 -5.666742 4.233057 -19.232583 0.000000 0.000000 0.000000 -31.636498 -12.098547 8.732784 -44.073573 -27.502225 1.556869 12.071425 -44.826793 -1.678556 0.000000 0.000000 0.000000 15.222571 22.405948 9.293126 57.867973 28.480076 5.982010 -17.806474 42.500601 -4.721443 0.000000 0.000000 0.000000 
-0.042429 0.973802 -0.010149 -2.375351 -4.087360 3.483696 8.901142 -0.073695 0.997047 -4.813086 0.508223 -11.089343 0.834196 7.678304 21.132703 0.000000 0.000000 0.000000 -3.973912 0.232001 -1.154735 1.647595 -0.279783 -5.015248 -0.145820 -8.727036 21.867010 0.000000 0.000000 0.000000 -5.086856 0.205224 12.850113 8.423699 -2.437139 -14.585621 -1.302450 -2.279711 28.620301 -5.504686 4.191257 -19.617689 0.000000 0.000000 0.000000 -31.253918 -12.155844 8.509340 -44.009520 -27.728546 1.690279 13.298419 -44.522629 -2.192506 0.000000 0.000000 0.000000 15.452588 22.528619 9.502771 57.883047 28.831436 6.178089 -17.014122 42.174274 -4.327989 0.000000 0.000000 0.000000 
